# xmcd
#
# Track frame offsets: 
#        150
#        20980
#        40099
#        60102
#        79006
#        101647
#        129578
#        148592
#        164266
#        189156
#        204221
#        228692
#        246970
#
# Disc length: 3631 seconds
#
# Revision: 0
# Processed by: cddbd v1.5.2PL0 Copyright (c) Steve Scherf et al.
# Submitted via: ExactAudioCopy v1.0b3
#
DISCID=a80e2d0d
DTITLE=Bernard Allison - Chills and Thrills
DYEAR=2008
DGENRE=Blues
TTITLE0=Chills and Thrills
TTITLE1=Boogie Man
TTITLE2=So Devine
TTITLE3=When I'm Gone
TTITLE4=Missing Tyrone
TTITLE5=Just My Guitar And Me
TTITLE6=Compromising For Your Needs
TTITLE7=Black and White
TTITLE8=Serious
TTITLE9=Heart Of St. Paul
TTITLE10=That's Why I'm Cryin'
TTITLE11=Groove With Me
TTITLE12=Serious (After Hours)
EXTD=
EXTT0=
EXTT1=
EXTT2=
EXTT3=
EXTT4=
EXTT5=
EXTT6=
EXTT7=
EXTT8=
EXTT9=
EXTT10=
EXTT11=
EXTT12=
PLAYORDER=
